<svg xmlns="http://www.w3.org/2000/svg" width="24" height="24" viewBox="0 0 24 24" fill="none" stroke="currentColor" stroke-width="2" stroke-linecap="round" stroke-linejoin="round" class="lucide lucide-cat"><path d="M12 5c.67 0 1.35.09 2 .26 1.78.47 3.34 1.47 4.5 3.04-1.07 1.57-2.63 2.57-4.5 3.04a9.904 9.904 0 0 1-4 0c-1.87-.47-3.43-1.47-4.5-3.04C5.66 6.56 7.22 5.56 9 5.09A9.904 9.904 0 0 1 12 5Z"/><path d="M5 14.88V16a2 2 0 0 0 2 2h10a2 2 0 0 0 2-2v-1.12"/><path d="M9 18H5l-1-4h6"/><path d="m15 18 6-4h-6l-1 4Z"/><path d="M10 14h4"/><path d="M12 22v-4"/><path d="M12 5a2 2 0 0 0-2-2 2 2 0 0 1-2-2"/><path d="M12 5a2 2 0 0 1 2-2 2 2 0 0 0 2-2"/></svg>